<svg id="Camada_1" data-name="Camada 1" xmlns="http://www.w3.org/2000/svg" viewBox="0 0 741.4 269.63"><defs><style>.cls-1{fill:#2d7fd9;}.cls-2{fill:#1d202e;}</style></defs><polygon class="cls-1" points="205.98 10.31 40.31 148.94 98.99 148.94 9.83 260.53 203.68 128.8 128.9 127.08 205.98 10.31"/><path class="cls-2" d="M7110.33,7204.3H7096v-10h-.25q-6.25,11.52-19.43,11.51-22.46,0-22.46-27v-37.87h14.36v36.38q0,17.09,13.17,17.08a13.33,13.33,0,0,0,10.49-4.7q4.11-4.71,4.12-12.32v-36.44h14.35Z" transform="translate(-6826.11 -7078.06)"/><path class="cls-2" d="M7143.62,7195h-.25v38.49H7129v-92.5h14.35v11.14h.25q7.36-12.63,21.53-12.63,12.06,0,18.81,8.48t6.74,22.77q0,15.84-7.61,25.37t-20.79,9.53Q7150.18,7205.6,7143.62,7195Zm-.37-25v7.86a16.75,16.75,0,0,0,4.42,11.75,15.61,15.61,0,0,0,23.76-1.39q4.55-6.23,4.55-17.36,0-9.33-4.24-14.63a13.93,13.93,0,0,0-11.48-5.29,15.46,15.46,0,0,0-12.34,5.45A20.12,20.12,0,0,0,7143.25,7170Z" transform="translate(-6826.11 -7078.06)"/><path class="cls-2" d="M7259,7176.52h-43.19q.26,8.77,5.42,13.55t14.2,4.76a31.32,31.32,0,0,0,18.62-6.06v11.57q-8.66,5.44-22.89,5.44-14,0-21.94-8.63t-7.95-24.28q0-14.79,8.76-24.1a28.63,28.63,0,0,1,21.75-9.32q13,0,20.11,8.36T7259,7171Zm-13.86-10.15q-.06-7.74-3.65-12a12.2,12.2,0,0,0-9.9-4.29,14,14,0,0,0-10.49,4.51,20.67,20.67,0,0,0-5.29,11.82Z" transform="translate(-6826.11 -7078.06)"/><path class="cls-2" d="M7309.44,7154.61q-2.59-2-7.49-2-6.37,0-10.64,5.76T7287,7174v30.32h-14.36v-63.36H7287V7154h.25a22,22,0,0,1,6.46-10.43,14.58,14.58,0,0,1,9.75-3.74,12.14,12.14,0,0,1,5.94,1.17Z" transform="translate(-6826.11 -7078.06)"/><path class="cls-2" d="M7375.89,7204.3h-14.36v-34.65q0-18.81-12.56-18.81a13.14,13.14,0,0,0-10.64,5.44q-4.34,5.45-4.33,13.93v34.09h-14.42v-93.8H7334v41h.25q7.17-12,20.54-12,21.1,0,21.1,25.81Z" transform="translate(-6826.11 -7078.06)"/><path class="cls-2" d="M7447,7176.52h-43.19q.26,8.77,5.42,13.55t14.2,4.76a31.32,31.32,0,0,0,18.62-6.06v11.57q-8.67,5.44-22.89,5.44-14,0-21.94-8.63t-7.95-24.28q0-14.79,8.76-24.1a28.62,28.62,0,0,1,21.75-9.32q13,0,20.11,8.36T7447,7171Zm-13.86-10.15q-.06-7.74-3.65-12a12.2,12.2,0,0,0-9.9-4.29,14,14,0,0,0-10.49,4.51,20.67,20.67,0,0,0-5.29,11.82Z" transform="translate(-6826.11 -7078.06)"/><path class="cls-2" d="M7497.41,7154.61c-1.74-1.36-4.23-2-7.49-2q-6.37,0-10.64,5.76T7475,7174v30.32h-14.36v-63.36H7475V7154h.25a22,22,0,0,1,6.46-10.43,14.58,14.58,0,0,1,9.75-3.74,12.17,12.17,0,0,1,5.94,1.17Z" transform="translate(-6826.11 -7078.06)"/><path class="cls-2" d="M7534.53,7205.78q-14.67,0-23.42-8.88t-8.75-23.54q0-16,9.12-24.93t24.6-9q14.85,0,23.14,8.73t8.29,24.19q0,15.16-8.94,24.29T7534.53,7205.78Zm.68-54.88q-8.41,0-13.3,5.88T7517,7173q0,10,4.95,15.68t13.24,5.73q8.47,0,13-5.63t4.55-16q0-10.45-4.55-16.15T7535.21,7150.9Z" transform="translate(-6826.11 -7078.06)"/></svg>